<?xml version="1.0" encoding="UTF-8" standalone="no"?>
<svg
   xmlns:dc="http://purl.org/dc/elements/1.1/"
   xmlns:cc="http://creativecommons.org/ns#"
   xmlns:rdf="http://www.w3.org/1999/02/22-rdf-syntax-ns#"
   xmlns:svg="http://www.w3.org/2000/svg"
   xmlns="http://www.w3.org/2000/svg"
   xmlns:xlink="http://www.w3.org/1999/xlink"
   xmlns:sodipodi="http://sodipodi.sourceforge.net/DTD/sodipodi-0.dtd"
   xmlns:inkscape="http://www.inkscape.org/namespaces/inkscape"
   id="fi_2044894"
   enable-background="new 0 0 512.002 512.002"
   height="512"
   viewBox="0 0 512.002 512.002"
   width="512"
   version="1.1"
   sodipodi:docname="background.svg"
   inkscape:version="1.0.2-2 (e86c870879, 2021-01-15)">
  <metadata
     id="metadata23">
    <rdf:RDF>
      <cc:Work
         rdf:about="">
        <dc:format>image/svg+xml</dc:format>
        <dc:type
           rdf:resource="http://purl.org/dc/dcmitype/StillImage" />
        <dc:title></dc:title>
      </cc:Work>
    </rdf:RDF>
  </metadata>
  <defs
     id="defs21" />
  <sodipodi:namedview
     pagecolor="#ffffff"
     bordercolor="#666666"
     borderopacity="1"
     objecttolerance="10"
     gridtolerance="10"
     guidetolerance="10"
     inkscape:pageopacity="0"
     inkscape:pageshadow="2"
     inkscape:window-width="1920"
     inkscape:window-height="1001"
     id="namedview19"
     showgrid="false"
     units="mm"
     inkscape:zoom="1"
     inkscape:cx="217.83571"
     inkscape:cy="222.29718"
     inkscape:window-x="-9"
     inkscape:window-y="-9"
     inkscape:window-maximized="1"
     inkscape:current-layer="layer2"
     inkscape:document-rotation="0" />
  <g
     inkscape:groupmode="layer"
     id="layer2"
     inkscape:label="back2"
     style="display:inline">
    <path
       style="fill:#2ca089;stroke-width:1"
       id="path98"
       d="m 231.48062,84.621417 c 1.01425,0 2.02848,0 3.04272,0 1.59407,0 3.18815,0 4.78221,0 1.72741,0 3.45483,0 5.18223,0 0.57904,0 1.15807,0 1.7371,0 11.10365,0 11.10365,-15.702943 0,-15.702943 v 0 c -0.57903,0 -1.15806,0 -1.7371,0 -1.7274,0 -3.45482,0 -5.18223,0 -1.59406,0 -3.18814,0 -4.78221,0 -1.01424,0 -2.02847,0 -3.04272,0 -11.10365,0 -11.10365,15.702943 0,15.702943 z" />
    <use
       id="use102"
       inkscape:spray-origin="#path98"
       xlink:href="#path98"
       x="0"
       y="0"
       width="100%"
       height="100%"
       transform="translate(-147.52924,197.53535)" />
    <use
       id="use104"
       inkscape:spray-origin="#path98"
       xlink:href="#path98"
       x="0"
       y="0"
       width="100%"
       height="100%"
       transform="translate(-106.41521,111.208)" />
    <use
       id="use106"
       inkscape:spray-origin="#path98"
       xlink:href="#path98"
       x="0"
       y="0"
       width="100%"
       height="100%"
       transform="translate(-70.483157,126.12867)" />
    <use
       id="use108"
       inkscape:spray-origin="#path98"
       xlink:href="#path98"
       x="0"
       y="0"
       width="100%"
       height="100%"
       transform="translate(-43.360758,129.3509)" />
    <use
       id="use110"
       inkscape:spray-origin="#path98"
       xlink:href="#path98"
       x="0"
       y="0"
       width="100%"
       height="100%"
       transform="translate(74.957265,86.750296)" />
    <use
       id="use112"
       inkscape:spray-origin="#path98"
       xlink:href="#path98"
       x="0"
       y="0"
       width="100%"
       height="100%"
       transform="translate(53.850641,124.7471)" />
    <use
       id="use114"
       inkscape:spray-origin="#path98"
       xlink:href="#path98"
       x="0"
       y="0"
       width="100%"
       height="100%"
       transform="translate(111.39396,160.21336)" />
    <use
       id="use116"
       inkscape:spray-origin="#path98"
       xlink:href="#path98"
       x="0"
       y="0"
       width="100%"
       height="100%"
       transform="translate(168.4614,217.39143)" />
    <use
       id="use128"
       inkscape:spray-origin="#path98"
       xlink:href="#path98"
       x="0"
       y="0"
       width="100%"
       height="100%"
       transform="translate(240.79561,361.51509)" />
    <use
       id="use130"
       inkscape:spray-origin="#path98"
       xlink:href="#path98"
       x="0"
       y="0"
       width="100%"
       height="100%"
       transform="translate(-63.744967,344.57804)" />
    <use
       id="use132"
       inkscape:spray-origin="#path98"
       xlink:href="#path98"
       x="0"
       y="0"
       width="100%"
       height="100%"
       transform="translate(-54.49604,317.08379)" />
    <use
       id="use134"
       inkscape:spray-origin="#path98"
       xlink:href="#path98"
       x="0"
       y="0"
       width="100%"
       height="100%"
       transform="translate(-160.30286,344.51066)" />
  </g>
</svg>
