<?xml version="1.0" encoding="UTF-8" standalone="no"?>
<svg
   xmlns:dc="http://purl.org/dc/elements/1.1/"
   xmlns:cc="http://creativecommons.org/ns#"
   xmlns:rdf="http://www.w3.org/1999/02/22-rdf-syntax-ns#"
   xmlns:svg="http://www.w3.org/2000/svg"
   xmlns="http://www.w3.org/2000/svg"
   xmlns:sodipodi="http://sodipodi.sourceforge.net/DTD/sodipodi-0.dtd"
   xmlns:inkscape="http://www.inkscape.org/namespaces/inkscape"
   id="fi_2044894"
   enable-background="new 0 0 512.002 512.002"
   height="512"
   viewBox="0 0 512.002 512.002"
   width="512"
   version="1.1"
   sodipodi:docname="neuron.svg"
   inkscape:version="1.0.2-2 (e86c870879, 2021-01-15)">
  <metadata
     id="metadata23">
    <rdf:RDF>
      <cc:Work
         rdf:about="">
        <dc:format>image/svg+xml</dc:format>
        <dc:type
           rdf:resource="http://purl.org/dc/dcmitype/StillImage" />
        <dc:title></dc:title>
      </cc:Work>
    </rdf:RDF>
  </metadata>
  <defs
     id="defs21" />
  <sodipodi:namedview
     pagecolor="#ffffff"
     bordercolor="#666666"
     borderopacity="1"
     objecttolerance="10"
     gridtolerance="10"
     guidetolerance="10"
     inkscape:pageopacity="0"
     inkscape:pageshadow="2"
     inkscape:window-width="1920"
     inkscape:window-height="1001"
     id="namedview19"
     showgrid="false"
     units="mm"
     inkscape:zoom="1"
     inkscape:cx="217.83571"
     inkscape:cy="222.29718"
     inkscape:window-x="-9"
     inkscape:window-y="-9"
     inkscape:window-maximized="1"
     inkscape:current-layer="layer3"
     inkscape:document-rotation="0" />
  <g
     inkscape:groupmode="layer"
     id="layer3"
     inkscape:label="front"
     style="display:inline">
    <path
       d="m 183.33731,277.32781 c -5.67059,-15.88502 -15.18762,-28.95413 -28.76256,-39.76146 -2.05768,-1.63813 -2.48789,-4.59337 -0.98344,-6.75142 12.41258,-17.79958 15.72184,-28.0701 20.06462,-45.07428 0.59838,-2.34346 2.79256,-3.91876 5.20422,-3.7372 21.45217,1.61691 32.76753,-0.36751 49.43709,-5.04435 2.38625,-0.66964 4.90159,0.51595 5.90499,2.78193 12.55095,28.35433 28.44652,38.93622 28.48825,39.76687 2.06691,1.84585 2.23189,5.02319 0.36722,7.0725 -13.00503,14.29434 -18.11198,27.99515 -19.87294,44.42395 -0.28761,2.6826 -2.65715,4.64959 -5.34671,4.43771 -23.23467,-1.82589 -29.38335,-0.38397 -48.44766,5.00781 -2.52581,0.71375 -5.171,-0.65137 -6.05308,-3.12206 z m 36.63464,-46.62333 c 0.95239,-5.89564 -3.05649,-11.44695 -8.9533,-12.39868 -5.89681,-0.95172 -11.44938,3.05601 -12.40116,8.95163 -0.95179,5.89561 3.0565,11.44696 8.95331,12.39869 5.8968,0.95173 11.44877,-3.05599 12.40115,-8.95164 z"
       fill="#8bc4ff"
       id="path2"
       style="stroke-width:0.597487" />
    <path
       d="m 299.0008,333.36703 c 4.43147,-2.94758 5.08321,-8.20655 2.62229,-11.9057 l -13.86978,-20.84536 c -2.58772,-3.889 -7.83765,-4.94441 -11.7273,-2.35786 -4.43148,2.94759 -5.08323,8.20656 -2.6223,11.9057 l 13.86978,20.84537 c 2.58715,3.88962 7.83768,4.945 11.72731,2.35785 z"
       fill="#8bc4ff"
       id="path4"
       style="stroke-width:0.597487" />
    <path
       d="m 374.54362,357.63831 c -0.0734,-5.39125 -4.20501,-8.71752 -8.57816,-8.65819 l -25.04196,0.34138 c -4.67147,0.0635 -8.4067,3.90225 -8.34314,8.57371 0.0734,5.39125 4.20502,8.71753 8.57817,8.65818 l 25.04196,-0.34138 c 4.67146,-0.0635 8.40669,-3.90224 8.34313,-8.5737 z"
       fill="#8bc4ff"
       id="path6"
       style="stroke-width:0.597487" />
    <g
       fill="#2e58ff"
       id="g16"
       transform="matrix(0.02997468,0.59673526,0.59673526,-0.02997468,125.47938,137.71634)">
      <path
         d="M 211.611,95.561 C 197.655,91.443 183.563,82.91 172.786,70.686 c -0.452,-0.403 -2.471,-3.514 -6.987,-4.834 -11.134,-3.255 -12.117,6.186 -35.405,17.05 -9.427,4.398 -16.097,6.003 -20.247,7.341 -6.129,1.976 -10.032,7.921 -9.227,14.311 1.142,9.058 14.223,9.382 15.816,0.398 2.502,-0.994 21.866,-4.738 44.978,-22.646 11.638,12.836 26.378,22.401 42.85,27.81 -0.992,6.431 -6.508,18.83 -2.617,48.893 -17.31,2.85 -33.012,10.837 -45.502,23.139 -12.192,-11.824 -26.413,-20.912 -42.308,-27.033 -0.783,-9.062 -13.761,-9.937 -15.773,-1.081 -1.449,6.379 2.063,12.957 8.169,15.3 1.438,0.724 21.479,6.751 40.498,26.01 4.234,4.287 9.526,3.96 9.426,3.939 6.741,0 10.009,-4.713 10.683,-5.205 17.848,-17.958 38.859,-19.342 39.954,-19.686 7.13,-1.13 11.991,-7.623 11.064,-14.782 l -0.905,-6.999 c -2.794,-21.601 2.664,-36.401 3.475,-41.397 1.552,-6.771 -2.43,-13.68 -9.117,-15.653 z"
         id="path8" />
      <path
         d="m 145.396,154.342 c 19.465,12.619 44.54,-4.76 39.72,-27.349 -3.009,-14.105 -16.859,-23.093 -30.971,-20.08 -22.597,4.824 -28.203,34.814 -8.749,47.429 z m 12.089,-31.781 c 5.444,-1.164 10.816,2.3 11.983,7.771 1.869,8.764 -7.853,15.461 -15.368,10.586 -7.469,-4.844 -5.459,-16.47 3.385,-18.357 z"
         id="path10" />
      <path
         d="m 484.049,453.211 c -2.893,-3.342 -7.946,-3.703 -11.285,-0.812 -10.869,9.411 -23.676,10.037 -36.741,4.029 3.443,-6.709 3.406,-15.003 -0.863,-21.854 -23.737,-38.097 -23.094,-37.937 -27.214,-41.208 3.185,-6.548 2.336,-6.948 0.675,-52.352 -0.265,-7.251 -4.001,-13.577 -9.553,-17.422 3.141,-7.08 2.496,-15.607 -2.45,-22.249 l -25.033,-33.614 c -5.123,-6.88 -13.397,-9.888 -21.237,-8.657 -1.657,-4.747 -4.898,-8.999 -9.569,-11.727 -34.738,-20.284 -36.833,-23.834 -45.704,-24.482 -1.287,-10.432 -6.287,-12.4 -31.904,-45.695 -3.833,-4.981 -9.673,-8.096 -16.42,-8.406 -0.171,-2.54 -3.442,-19.119 -0.959,-41.463 1.968,-17.711 6.206,-28.474 6.365,-33.822 l 20.323,-7.006 c 2.661,4.024 6.435,7.747 11.32,11.135 3.615,2.507 8.603,1.631 11.133,-2.016 2.518,-3.631 1.615,-8.615 -2.016,-11.133 -5.473,-3.795 -8.517,-7.77 -9.048,-11.815 -0.688,-5.241 2.968,-9.735 3.142,-9.944 2.88,-3.304 2.566,-8.317 -0.717,-11.235 -3.303,-2.936 -8.359,-2.637 -11.294,0.665 -0.795,0.895 -7.151,8.415 -7.198,19.032 l -23.255,8.017 c -4.916,-3.118 -21.724,-6.172 -41.735,-19.627 -18.007,-12.107 -26.3,-24.154 -29.966,-26.881 0.536,-3.074 0.694,-6.767 0.075,-10.665 2.133,-1.785 5.893,-4.178 11.513,-5.144 4.354,-0.748 7.278,-4.885 6.53,-9.239 -0.748,-4.354 -4.882,-7.278 -9.239,-6.53 -6.671,1.146 -11.819,3.571 -15.635,6.091 -1.755,-2.043 -3.887,-3.991 -6.475,-5.771 -3.64,-2.504 -8.621,-1.582 -11.125,2.057 -2.504,3.641 -1.583,8.621 2.057,11.125 5.815,4.001 7.883,9.973 6.391,16.05 -5.268,2.135 -13.029,11.199 -34.483,22.504 -20.377,10.738 -36.332,14.107 -40.18,15.612 -1.548,-4.891 -2.511,-10.823 -0.437,-14.249 2.289,-3.779 1.08,-8.698 -2.7,-10.986 -3.779,-2.291 -8.699,-1.08 -10.987,2.699 -3.987,6.584 -4.006,14.347 -2.767,20.996 -4.25,-0.107 -9.04,0.61 -14.039,2.836 -4.037,1.796 -5.853,6.524 -4.056,10.562 1.797,4.037 6.525,5.854 10.562,4.056 5.049,-2.246 9.732,-1.49 12.612,-0.564 -0.096,4.637 3.839,21.135 1.874,47.091 -1.591,21.012 -6.165,34.605 -6.296,38.652 0,0 -28.627373,9.72436 -40.865377,18.25807 -10.727832,7.48065 -27.4013219,28.08177 -27.4013219,28.08177 -7.045,-5.175 -15.3470001,-4.505 -16.3890001,-4.397 -4.395,0.456 -7.587,4.389 -7.131,8.783 0.456,4.395 4.387,7.598 8.783,7.131 0.038,0.001 3.934,-0.172 5.959,1.996 1.9180001,2.054 2.4120001,6.43 1.3900001,12.321 -0.7550001,4.354 2.162,8.495 6.516,9.25 4.353,0.754 8.494,-2.163 9.249,-6.516 0.969,-5.587 1.002,-10.55 0.113,-14.865 0,0 15.2809309,-21.40317 26.4723809,-29.04048 C 43.928132,193.21705 73.413,184.071 73.413,184.071 c 4.04,2.667 17.264,5.781 36.669,17.878 21.47,13.384 31.355,26.45 36.516,29.16 0.41,1.402 3.723,14.276 -7.658,29.447 -2.651,3.534 -1.936,8.549 1.599,11.2 3.556,2.668 8.566,1.912 11.2,-1.599 2.282,-3.042 4.126,-6.042 5.629,-8.964 4.498,2.463 9.6,3.257 14.723,3.048 4.415,-0.182 7.846,-3.907 7.665,-8.322 -0.182,-4.414 -3.907,-7.862 -8.322,-7.664 -5.891,0.24 -7.956,-1.916 -8.679,-3.48 0.902,-5.962 0.554,-10.917 0.027,-14.264 5.451,-3.393 22.219,-26.308 59.988,-34.988 1.6,9.464 6.088,11.443 31.785,44.714 3.953,5.117 9.971,8.207 16.706,8.429 0.951,6.354 4.596,12.314 10.572,15.785 35.335,20.52 38.617,26.161 50.694,24.288 1.949,5.464 2.911,5.275 28.124,39.393 1.411,1.909 3.108,3.525 4.991,4.858 -2.693,6.148 -1.968,6.043 -0.302,51.556 0.249,6.805 3.563,12.78 8.557,16.668 -3.264,6.646 -3.156,14.771 1.039,21.504 l 22.163,35.572 c 4.024,6.458 10.929,10.305 18.46,10.438 -1.207,8.313 -5.82,20.51 -21.625,28.054 -3.987,1.903 -5.677,6.679 -3.773,10.666 1.906,3.993 6.681,5.674 10.666,3.773 16.144,-7.706 23.878,-19.131 27.574,-28.706 12.224,15.366 25.511,20.208 26.265,20.473 4.162,1.458 8.731,-0.727 10.195,-4.904 1.461,-4.17 -0.735,-8.734 -4.904,-10.195 -3.666,-1.294 -10.589,-5.78 -16.562,-12.417 12.307,2.188 26.71,0.398 39.844,-10.975 3.339,-2.894 3.702,-7.946 0.81,-11.286 z m -97.272,-63.364 c -2.972,-0.33 -5.336,-2.812 -5.449,-5.889 l -1.532,-41.889 c -0.298,-8.158 12.534,-8.667 12.835,-0.47 l 1.532,41.888 c 0.078,2.148 -0.961,4.081 -2.594,5.243 -1.63,0.194 -3.236,0.56 -4.792,1.117 z M 154.177,216.97 c -1.198,-0.399 -13.193,-14.721 -36.716,-29.169 -21.565,-13.245 -35.637,-16.542 -35.429,-17.458 0.496,-3.339 5.992,-21.132 6.739,-47.588 0.578,-20.452 -1.942,-34.76 -2.322,-38.245 -0.144,-1.321 18.274,-3.825 44.12,-17.562 21.801,-11.588 32.119,-22.162 32.78,-21.405 1.685,1.456 26.468,33.315 72.429,47.065 0.407,0.122 0.409,0.311 0.379,0.448 -1.912,8.792 -5.487,20.478 -6.881,38.423 -1.795,23.097 1.806,38.557 2.027,42.584 -0.341,0.305 -2.084,1.399 -4.306,4.318 -48.174,8.036 -71.547,38.589 -72.82,38.589 z m 112.947,13.364 c -40.432,-51.837 -28.626,-30.85 -21.158,-45.602 4.864,0.163 3.252,1.084 31.992,37.069 1.578,1.976 1.706,4.645 0.575,6.74 -1.699,1.546 -3.248,4.588 -7.297,4.098 -1.634,-0.194 -3.1,-1.007 -4.112,-2.305 z m 58.901,41.8 -36.009,-21.434 c -7.078,-4.215 -0.417,-15.198 6.571,-11.041 l 36.009,21.435 c 7.032,4.188 0.484,15.24 -6.571,11.04 z m 22.425,12.825 c -4.587,-7.131 5.584,-14.01 10.302,-7.673 l 25.033,33.614 c 1.964,2.637 1.749,6.762 -2.074,9.194 -1.169,0.227 -4.534,3.292 -8.228,-1.522 z m 40.066,129.296 c -1.745,-2.757 -1.059,-6.592 2.06,-8.539 1.614,-0.187 3.174,-0.543 4.659,-1.057 1.856,0.328 3.287,1.365 4.182,2.803 l 22.164,35.573 c 3.11,4.993 -1.969,10.716 -7.068,9.534 -4.357,-1.011 -3.039,-2.041 -25.997,-38.314 z"
         id="path12"
         sodipodi:nodetypes="ccccccccccccccccccccscccccccccsccccccccccccccccccscccccccscscccccccccccccccccccsccccsccccccccccccccccccccccccccccccccccccccccccccccscccccs" />
      <path
         d="m 110.1,139.197 c 4.418,0 7.988,-3.582 7.988,-8 0,-4.418 -3.594,-8 -8.013,-8 -4.419,0 -8,3.582 -8,8 0,4.342 3.497,8 8.025,8 z"
         id="path14" />
    </g>
  </g>
</svg>
