<?xml version="1.0" encoding="UTF-8" standalone="no"?>
<svg
   xmlns:dc="http://purl.org/dc/elements/1.1/"
   xmlns:cc="http://creativecommons.org/ns#"
   xmlns:rdf="http://www.w3.org/1999/02/22-rdf-syntax-ns#"
   xmlns:svg="http://www.w3.org/2000/svg"
   xmlns="http://www.w3.org/2000/svg"
   xmlns:sodipodi="http://sodipodi.sourceforge.net/DTD/sodipodi-0.dtd"
   xmlns:inkscape="http://www.inkscape.org/namespaces/inkscape"
   id="fi_2044894"
   enable-background="new 0 0 512.002 512.002"
   height="512"
   viewBox="0 0 512.002 512.002"
   width="512"
   version="1.1"
   sodipodi:docname="neuron-back.svg"
   inkscape:version="1.0.2-2 (e86c870879, 2021-01-15)">
  <metadata
     id="metadata23">
    <rdf:RDF>
      <cc:Work
         rdf:about="">
        <dc:format>image/svg+xml</dc:format>
        <dc:type
           rdf:resource="http://purl.org/dc/dcmitype/StillImage" />
        <dc:title></dc:title>
      </cc:Work>
    </rdf:RDF>
  </metadata>
  <defs
     id="defs21" />
  <sodipodi:namedview
     pagecolor="#ffffff"
     bordercolor="#666666"
     borderopacity="1"
     objecttolerance="10"
     gridtolerance="10"
     guidetolerance="10"
     inkscape:pageopacity="0"
     inkscape:pageshadow="2"
     inkscape:window-width="1920"
     inkscape:window-height="1001"
     id="namedview19"
     showgrid="false"
     units="mm"
     inkscape:zoom="1"
     inkscape:cx="217.83571"
     inkscape:cy="222.29718"
     inkscape:window-x="-9"
     inkscape:window-y="-9"
     inkscape:window-maximized="1"
     inkscape:current-layer="layer1"
     inkscape:document-rotation="0" />
  <g
     inkscape:groupmode="layer"
     id="layer1"
     inkscape:label="back1"
     style="display:inline">
    <path
       style="fill:#5599ff;stroke-width:0.64245"
       id="path68"
       d="m 233.28726,219.54063 c 1.43831,-0.42703 2.8406,-0.9672 4.26535,-1.43826 2.25309,-0.75243 4.49714,-1.53069 6.70911,-2.39701 2.5548,-1.01419 5.02589,-2.2127 7.4489,-3.50655 2.50819,-1.35393 4.90096,-2.90597 7.22755,-4.54882 2.27354,-1.67922 4.45735,-3.47604 6.61193,-5.30414 2.31702,-1.93938 4.48862,-4.03855 6.58788,-6.209 2.17418,-2.24879 4.14324,-4.68367 6.04589,-7.16294 1.85522,-2.45228 3.4971,-5.05334 5.06374,-7.69613 1.54313,-2.49471 2.74888,-5.16301 3.79274,-7.89778 0.63346,-1.67684 1.14641,-3.39183 1.61159,-5.12144 1.83919,-6.89238 -7.90811,-9.49339 -9.7473,-2.60101 v 0 c -0.37,1.40111 -0.78835,2.78708 -1.29709,4.1451 -0.82657,2.19828 -1.79665,4.33595 -3.04017,6.33425 -1.36031,2.29921 -2.78234,4.56455 -4.39089,6.70049 -1.66546,2.17668 -3.38968,4.315 -5.29368,6.28963 -1.86629,1.93388 -3.79836,3.80276 -5.86153,5.52795 -1.92789,1.6375 -3.88231,3.24609 -5.90982,4.75946 -1.98195,1.40551 -4.02321,2.72975 -6.1603,3.88929 -2.07476,1.1128 -4.19205,2.14026 -6.38053,3.01276 -2.03845,0.80515 -4.11389,1.5098 -6.19057,2.20936 -1.22447,0.40635 -2.43819,0.84946 -3.66022,1.2586 -6.89867,1.81544 -4.33126,11.57164 2.56742,9.75619 z" />
    <path
       style="fill:#5599ff;stroke-width:0.64245"
       id="path70"
       d="m 280.76397,185.0143 c -0.54586,-0.0424 1.38271,0.26529 1.41537,0.27146 0.84585,0.13193 1.66588,0.36219 2.48215,0.61315 0.63234,0.20603 1.2561,0.43727 1.8833,0.65826 6.72838,2.3699 10.07993,-7.14546 3.35155,-9.51536 v 0 c -0.75725,-0.26664 -1.51012,-0.54656 -2.27609,-0.78764 -1.17881,-0.36097 -2.3685,-0.68075 -3.58593,-0.88477 -1.08131,-0.20083 -2.16887,-0.40388 -3.27035,-0.44347 -7.13355,0 -7.13355,10.08837 0,10.08837 z" />
    <path
       style="fill:#5599ff;stroke-width:0.64245"
       id="path72"
       d="m 186.70766,211.43153 c -0.75675,-0.12091 -1.51331,-0.23802 -2.26628,-0.38056 -1.37466,-0.33792 -2.74762,-0.68339 -4.11508,-1.04952 -2.05861,-0.52033 -4.07984,-1.16714 -6.07822,-1.88179 -2.57664,-1.01038 -5.0851,-2.175 -7.57185,-3.38649 -3.29106,-1.62529 -6.59198,-3.22681 -9.7113,-5.16608 -3.28421,-2.17081 -6.46521,-4.49595 -9.59106,-6.88797 -3.16911,-2.48114 -6.29602,-5.01972 -9.36778,-7.62062 -2.87846,-2.46344 -5.38146,-5.31961 -7.81875,-8.20881 -2.27959,-2.70475 -4.30228,-5.60751 -6.2743,-8.53951 -1.75361,-2.62322 -3.34911,-5.34683 -4.88916,-8.09937 -1.396,-2.47768 -2.5863,-5.06062 -3.72471,-7.66406 -0.18164,-0.42632 -0.36328,-0.85264 -0.54491,-1.27896 -2.79721,-6.56225 -12.07764,-2.6064 -9.28043,3.95586 v 0 c 0.19438,0.45582 0.38876,0.91165 0.58315,1.36747 1.27183,2.90441 2.60643,5.78351 4.16425,8.54803 1.67614,2.99198 3.41298,5.95211 5.32186,8.80298 2.17795,3.23544 4.41885,6.43336 6.93694,9.41697 2.80379,3.31627 5.69501,6.58071 9.01022,9.40128 3.20058,2.70565 6.4529,5.35297 9.75573,7.93274 3.39258,2.59228 6.84173,5.11704 10.41518,7.45564 3.41626,2.10133 6.99407,3.89742 10.59794,5.65437 2.82127,1.37352 5.67027,2.69075 8.60031,3.81874 2.25746,0.80315 4.53866,1.53658 6.86236,2.12593 1.60933,0.42934 3.22281,0.84641 4.84696,1.2162 0.70169,0.13232 1.52138,0.27652 2.16044,0.35999 6.99503,1.399 8.97351,-8.49345 1.97849,-9.89246 z" />
    <path
       style="fill:#5599ff;stroke-width:0.64245"
       id="path74"
       d="m 115.5814,159.23293 c -0.8055,-0.013 -1.60468,0.0909 -2.39694,0.22425 -0.83104,0.14619 -1.64183,0.38126 -2.44603,0.63263 -0.80914,0.27453 -1.60642,0.58137 -2.40026,0.89694 -0.85011,0.32629 -1.68931,0.68082 -2.52439,1.04363 -1.01672,0.42653 -1.98832,0.94708 -2.94007,1.50117 -0.84478,0.47524 -1.65044,1.01495 -2.43741,1.57945 -5.775689,4.18675 0.14527,12.35481 5.92097,8.16805 v 0 c 0.51038,-0.37859 1.04755,-0.72126 1.60065,-1.03395 0.61222,-0.35832 1.23424,-0.70043 1.89223,-0.96903 0.73189,-0.32195 1.47117,-0.62804 2.21726,-0.91554 0.5628,-0.22411 1.12767,-0.44149 1.69751,-0.64703 0.39529,-0.12559 0.79177,-0.25137 1.20034,-0.32637 0.23576,-0.0393 0.40619,-0.0788 0.61614,-0.0658 7.13355,0 7.13355,-10.08836 0,-10.08836 z" />
    <path
       style="fill:#5599ff;stroke-width:0.64245"
       id="path76"
       d="m 205.13355,256.07411 c 0.34148,1.0244 0.68638,2.04751 1.01875,3.07508 0.50989,1.65539 1.06568,3.29474 1.65542,4.92319 0.65987,1.76339 1.26582,3.54597 1.8873,5.32304 0.61991,1.81715 1.22209,3.64043 1.81495,5.4666 0.56899,1.78521 1.12113,3.5757 1.67428,5.36588 0.52954,1.69002 0.98315,3.40215 1.4604,5.10732 0.45665,1.6351 0.92301,3.26788 1.41688,4.89217 0.5227,1.68989 1.17278,3.33665 1.81614,4.98325 2.59612,6.64437 11.99268,2.9729 9.39655,-3.67147 v 0 c -0.54924,-1.40568 -1.10945,-2.80964 -1.56176,-4.25027 -0.473,-1.55098 -0.91586,-3.11126 -1.35278,-4.67272 -0.50153,-1.79194 -0.97949,-3.59083 -1.53673,-5.36663 -0.56734,-1.836 -1.13363,-3.67234 -1.71775,-5.50308 -0.61639,-1.89804 -1.2421,-3.79322 -1.88745,-5.6816 -0.63392,-1.8124 -1.25232,-3.63032 -1.92499,-5.42892 -0.55037,-1.51844 -1.06688,-3.04757 -1.54173,-4.59151 -0.31023,-0.95912 -0.62545,-1.91654 -0.95458,-2.86919 -2.04981,-6.8327 -11.71271,-3.93383 -9.6629,2.89886 z" />
    <path
       style="fill:#5599ff;stroke-width:0.64245"
       id="path78"
       d="m 226.18464,309.78365 c 0,-0.5464 0,-1.09281 0,-1.63921 0.047,-0.58859 0.10494,-1.17725 0.17239,-1.76404 0.0972,-0.74396 0.23234,-1.48017 0.42877,-2.20407 0.23396,-0.74231 0.48063,-1.48986 0.8265,-2.18872 0.25641,-0.59997 0.61995,-1.13109 1.04135,-1.62405 0.44575,-0.51416 0.95119,-0.96794 1.49471,-1.37526 0.41641,-0.32012 0.87509,-0.5677 1.35683,-0.77139 0.39713,-0.11311 0.80353,-0.1822 1.21082,-0.25007 7.03278,-1.19481 5.34307,-11.14066 -1.68971,-9.94585 v 0 c -1.22704,0.21091 -2.44686,0.47903 -3.59783,0.96794 -1.21281,0.54458 -2.37713,1.18714 -3.43145,2.00336 -1.13448,0.88282 -2.20428,1.84578 -3.12673,2.95298 -0.94771,1.16586 -1.79183,2.40805 -2.40462,3.78628 -0.5705,1.25335 -1.06765,2.54185 -1.43433,3.87074 -0.31178,1.19959 -0.55213,2.41468 -0.69898,3.64626 -0.10732,0.96221 -0.2147,1.92737 -0.23608,2.89589 0,0.5464 0,1.09281 0,1.63921 0,7.13355 10.08836,7.13355 10.08836,0 z" />
    <path
       style="fill:#002255;stroke-width:0.64245"
       id="path80"
       d="m 212.17302,194.41815 c 0.008,-0.76451 -0.0387,-1.52819 -0.0715,-2.2917 -0.0528,-1.29053 -0.21575,-2.56692 -0.47345,-3.83109 -0.31942,-1.27742 -0.65937,-2.5497 -0.99904,-3.82188 -0.36994,-1.40577 -0.76301,-2.8042 -1.22905,-4.18122 -0.52123,-1.42612 -1.09302,-2.83325 -1.65957,-4.24183 -0.59606,-1.56416 -1.27152,-3.09516 -2.0069,-4.59828 -0.54492,-1.08246 -1.16382,-2.12463 -1.77396,-3.17088 -3.59376,-6.16218 -12.3084,-1.07984 -8.71465,5.08234 v 0 c 0.48868,0.83789 0.98745,1.67069 1.43214,2.53325 0.6304,1.27922 1.19684,2.5878 1.70476,3.92069 0.49916,1.23893 0.99864,2.47809 1.46888,3.72829 0.39938,1.16083 0.71362,2.34711 1.03203,3.53232 0.3043,1.13746 0.60401,2.27618 0.89951,3.41595 0.2501,0.636 0.12213,1.40169 0.24022,2.0649 0.0266,0.61947 0.0682,1.23894 0.0623,1.85914 0,7.13355 10.08836,7.13355 10.08836,0 z" />
    <path
       style="fill:#002255;stroke-width:0.64245"
       id="path82"
       d="m 212.67638,198.24483 c -0.12854,-0.80673 -0.2888,-1.60933 -0.46275,-2.40754 -0.2897,-1.24262 -0.50298,-2.50008 -0.70214,-3.7597 -0.22586,-1.53817 -0.4252,-3.08048 -0.57968,-4.62748 -0.13388,-1.20436 -0.10288,-2.40948 0.0224,-3.61157 0.1035,-0.95433 0.31195,-1.88675 0.65498,-2.78244 0.33652,-0.84966 0.82306,-1.62866 1.32946,-2.38554 0.27883,-0.44849 0.60014,-0.86694 0.92283,-1.28392 4.33826,-5.66278 -3.67012,-11.798 -8.00838,-6.13522 v 0 c -0.4619,0.60665 -0.923,1.21454 -1.33219,1.85885 -0.93437,1.42524 -1.80442,2.90032 -2.39551,4.50594 -0.60048,1.69594 -1.03847,3.43753 -1.21095,5.23328 -0.17755,1.86798 -0.22479,3.74298 -0.0201,5.61249 0.17636,1.73613 0.39507,3.46786 0.65301,5.19381 0.23275,1.46722 0.48488,2.93146 0.82025,4.37934 0.10324,0.43946 0.18892,1.01139 0.28953,1.38845 0.8335,7.08468 10.85276,5.90595 10.01927,-1.17875 z" />
    <path
       style="fill:#002255;stroke-width:0.64245"
       id="path84"
       d="m 185.04463,241.80043 c -0.85688,0.16247 -1.66753,0.48068 -2.46092,0.83411 -0.89364,0.39266 -1.76034,0.84205 -2.65259,1.2377 -1.2263,0.53746 -2.42633,1.12884 -3.60799,1.7577 -1.21258,0.6627 -2.42796,1.31896 -3.62217,2.01445 -1.35149,0.76205 -2.68668,1.55097 -3.97566,2.4147 -1.7189,1.22625 -3.26373,2.67208 -4.7524,4.16349 -1.52508,1.59432 -2.81012,3.39378 -4.05607,5.20835 -0.7216,1.08737 -0.36684,0.54375 -1.06452,1.63068 -3.84974,6.00558 4.64343,11.44994 8.49318,5.44436 v 0 c 0.58497,-0.91402 0.28773,-0.45718 0.89192,-1.37039 0.89846,-1.31284 1.81379,-2.6233 2.88908,-3.79955 1.0272,-1.03835 2.09261,-2.0449 3.25957,-2.92644 1.0878,-0.75345 2.25474,-1.38428 3.3968,-2.0503 1.08322,-0.63262 2.18859,-1.22425 3.28801,-1.82799 0.97252,-0.52022 1.96214,-1.00496 2.97287,-1.44703 0.89467,-0.40125 1.77087,-0.84029 2.66467,-1.2431 0.27327,-0.12366 0.16987,-0.12935 0.64685,-0.22056 6.94392,-1.63386 4.63329,-11.45405 -2.31063,-9.82018 z" />
    <path
       style="fill:#002255;stroke-width:0.64245"
       id="path88"
       d="m 232.38626,241.68135 c 0.8049,0.44028 1.612,0.87625 2.42119,1.3086 1.27568,0.69387 2.56393,1.36159 3.87047,1.99537 1.51906,0.74706 3.07535,1.41339 4.61604,2.11371 1.63095,0.74727 3.28177,1.44965 4.89535,2.23428 1.72408,0.8558 3.44804,1.71158 5.16878,2.57406 1.68261,0.83027 3.37997,1.62983 5.08057,2.42241 1.63575,0.76604 3.3007,1.46564 4.98806,2.10915 1.11513,0.4071 0.55932,0.20799 1.66736,0.59756 6.73069,2.36334 10.07296,-7.15529 3.34227,-9.51863 v 0 c -0.95167,-0.33367 -0.47725,-0.16423 -1.42328,-0.50831 -1.46029,-0.55352 -2.89815,-1.1631 -4.31326,-1.82403 -1.61369,-0.75186 -3.22428,-1.51035 -4.82134,-2.29709 -1.76084,-0.88253 -3.5249,-1.75841 -5.28945,-2.63354 -1.69014,-0.8169 -3.4115,-1.56397 -5.12055,-2.34001 -1.46497,-0.66586 -2.94499,-1.29886 -4.39009,-2.00762 -1.18801,-0.5754 -2.35764,-1.1847 -3.51724,-1.81549 -0.77309,-0.41297 -1.54434,-0.82905 -2.31311,-1.25001 -6.25052,-3.43779 -11.1123,5.4018 -4.86177,8.83959 z" />
  </g>
  <g
     inkscape:groupmode="layer"
     id="layer3"
     inkscape:label="front"
     style="display:inline" />
</svg>
